Coordinates
version=1
nRows=12
nColumns=24
inDegrees=yes

Units are S.I. units (second, meters, Newtons, ...)
Angles are in degrees.

endheader
time	pelvis_tilt	pelvis_list	pelvis_rotation	pelvis_tx	pelvis_ty	pelvis_tz	hip_flexion_r	hip_adduction_r	hip_rotation_r	knee_angle_r	ankle_angle_r	subtalar_angle_r	mtp_angle_r	hip_flexion_l	hip_adduction_l	hip_rotation_l	knee_angle_l	ankle_angle_l	subtalar_angle_l	mtp_angle_l	lumbar_extension	lumbar_bending	lumbar_rotation
      1.13300000	     -2.50539608	     -7.36673862	     -7.71007067	     -0.04854337	      0.99494664	      0.30218904	    -13.48468791	      7.34734794	     -0.53518099	     -5.95800233	      4.81381365	     -5.44618383	      2.14944743	     24.45615182	    -11.17924971	    -13.71939633	      2.84728922	      3.34752140	     -5.66893125	    -17.67757732	     -9.32431332	      7.97068428	      9.49926987
      1.13716667	     -2.40169634	     -7.25370354	     -8.01952311	     -0.04302248	      0.99460508	      0.30274453	    -13.83095328	      7.09353048	     -0.21685386	     -6.13348308	      4.75731526	     -5.48145714	      2.46520764	     24.37509526	    -11.22664524	    -13.72152053	      2.30687967	      3.32813557	     -6.00015912	    -17.52153706	     -9.44876967	      7.65336516	      9.89495496
      1.14133333	     -2.35752281	     -7.18402721	     -8.31281588	     -0.03759401	      0.99417220	      0.30323922	    -14.08201961	      6.89470534	      0.10301757	     -6.37784002	      4.78733069	     -5.46431308	      2.57176531	     24.39846003	    -11.31979336	    -13.65352509	      1.64761627	      3.32542094	     -6.36388353	    -17.47090928	     -9.52630336	      7.41485047	     10.03978071
      1.14550000	     -2.24870430	     -7.06995791	     -8.65666444	     -0.03208266	      0.99394340	      0.30385248	    -14.39286623	      6.62764924	      0.45852368	     -6.62114513	      4.72204907	     -5.53953647	      2.77700342	     24.30485145	    -11.37832423	    -13.69442625	      1.00617054	      3.15862516	     -6.84243760	    -17.37491851	     -9.66034450	      7.09239620	     10.49833470
      1.14966667	     -2.11185885	     -6.95528974	     -8.99247295	     -0.02654607	      0.99379075	      0.30442216	    -14.72219235	      6.34980742	      0.81349457	     -6.87807598	      4.65661694	     -5.58130744	      3.00532907	     24.18522800	    -11.42790747	    -13.76635204	      0.31140573	      3.01431542	     -7.26845190	    -17.26815715	     -9.81230450	      6.76621354	     10.86569087
      1.15383333	     -2.01183060	     -6.83416907	     -9.31274144	     -0.02095884	      0.99361955	      0.30496542	    -14.99969041	      6.07337981	      1.14970716	     -7.15213959	      4.55894552	     -5.62531821	      3.22062071	     24.10893188	    -11.46584140	    -13.83792899	     -0.41605950	      2.84336330	     -7.71172203	    -17.16917177	     -9.92135504	      6.44429600	     11.18962764
      1.15800000	     -1.95141064	     -6.71274127	     -9.61815360	     -0.01534905	      0.99341952	      0.30542098	    -15.20794802	      5.79930412	      1.44032855	     -7.47022360	      4.41115332	     -5.63806169	      3.35896968	     24.07715545	    -11.49404723	    -13.88127573	     -1.16771074	      2.69162754	     -8.14665755	    -17.10799182	     -9.99003367	      6.12935122	     11.41155603
      1.16216667	     -1.79502081	     -6.57121701	     -9.94003337	     -0.00970714	      0.99345473	      0.30591969	    -15.49999588	      5.48252391	      1.73008339	     -7.80733381	      4.24237941	     -5.74405518	      3.70008927	     23.89767078	    -11.49083360	    -14.03480635	     -1.84430075	      2.30155499	     -8.61011523	    -16.95745795	    -10.14462778	      5.75245354	     11.93950558
      1.16633333	     -1.73962214	     -6.45611927	    -10.23762518	     -0.00402870	      0.99334475	      0.30632339	    -15.67746279	      5.21260982	      2.01557332	     -8.16055310	      4.03942448	     -5.74426509	      3.84644196	     23.85066402	    -11.51333044	    -14.14310640	     -2.58531455	      2.04314799	     -9.07648769	    -16.89759294	    -10.17994387	      5.45469241	     12.06966044
      1.17050000	     -1.61761842	     -6.29721465	    -10.51147093	      0.00174040	      0.99340390	      0.30666997	    -15.91165159	      4.88811938	      2.25569935	     -8.52478863	      3.86359219	     -5.84813287	      4.15790688	     23.69551935	    -11.46056853	    -14.30233400	     -3.23285838	      1.55158882	     -9.59047002	    -16.76957169	    -10.26385646	      5.08967034	     12.52540009
      1.17466667	     -1.45248368	     -6.15098267	    -10.79701823	      0.00748705	      0.99360019	      0.30698236	    -16.16045407	      4.55614738	      2.46964821	     -8.92515599	      3.54812626	     -5.85439067	      4.90975999	     23.47330161	    -11.41377190	    -14.49940002	     -3.86433301	      1.14134810	    -10.02882283	    -16.44934815	    -10.42660209	      4.71842857	     13.00126677
      1.17883333	     -1.46580224	     -6.00170281	    -11.01683662	      0.01332093	      0.99351949	      0.30716648	    -16.20058093	      4.27908232	      2.62553786	     -9.37310243	      3.23442242	     -5.92208908	      5.05648631	     23.47872364	    -11.36474105	    -14.65097468	     -4.52187184	      0.65653402	    -10.39054411	    -16.39472262	    -10.35569191	      4.41520101	     12.97009290
